<svg width="45" height="45" viewBox="0 0 45 45" fill="none" xmlns="http://www.w3.org/2000/svg">
<g clip-path="url(#clip0_52_83)">
<path d="M30.3586 15.8831C30.3586 15.1733 29.7831 14.5979 29.0733 14.5979C28.3635 14.5979 27.7881 15.1733 27.7881 15.8831C27.7881 16.5929 28.3635 17.1684 29.0733 17.1684C29.7836 17.1679 30.3586 16.5929 30.3586 15.8831Z" fill="white"/>
<path d="M22.4747 16.5864C19.2226 16.5864 16.5864 19.2226 16.5864 22.4747C16.5864 23.2878 16.7514 24.0623 17.0493 24.7667C17.3471 25.471 17.7783 26.1057 18.3113 26.6382C19.3767 27.7037 20.8492 28.3631 22.4752 28.3631C24.1013 28.3631 25.5733 27.7041 26.6392 26.6382C27.1722 26.1052 27.6034 25.471 27.9012 24.7667C28.1991 24.0623 28.3641 23.2878 28.3641 22.4747C28.3631 19.2226 25.7269 16.5864 22.4747 16.5864Z" fill="white"/>
<path d="M22.4747 0.247314C10.1987 0.247314 0.247192 10.1988 0.247192 22.4749C0.247192 34.7509 10.1987 44.7024 22.4747 44.7024C34.7508 44.7024 44.7023 34.7509 44.7023 22.4749C44.7023 10.1988 34.7508 0.247314 22.4747 0.247314ZM34.8234 27.5319C34.8234 31.559 31.5589 34.8235 27.5317 34.8235H17.4177C13.3906 34.8235 10.1261 31.559 10.1261 27.5319V17.4178C10.1261 15.9079 10.585 14.505 11.3713 13.3413C12.6818 11.4016 14.9006 10.1262 17.4177 10.1262H27.5322C30.0489 10.1262 32.2682 11.4016 33.5786 13.3408C34.3645 14.5046 34.8234 15.9074 34.8234 17.4178V27.5319Z" fill="white"/>
</g>
<defs>
<clipPath id="clip0_52_83">
<rect width="45" height="45" fill="white"/>
</clipPath>
</defs>
</svg>
