<svg width="751" height="615" viewBox="0 0 751 615" fill="none" xmlns="http://www.w3.org/2000/svg">
<path d="M183.77 159.63C215.54 144.27 260.6 127.14 316.56 119.83C421.62 106.11 505.71 134.77 547.02 152.27C542.17 167.06 534.1 184.41 520.6 201.1C512.07 211.64 503.97 218.7 500.2 221.84C484.02 235.29 468.39 242.32 458.72 246.59C446.42 252.02 445.03 251.22 433.63 256.62C420.88 262.67 411.17 269.11 404.86 273.68C406.8 272.97 419.94 268.39 431.71 275.74C436.56 278.77 439.43 282.74 440.99 285.39C437.31 286.39 433.63 287.4 429.95 288.4C436.48 286.97 442.87 288.82 446.33 293.3C448.32 295.88 448.86 298.7 449.01 300.45C444.79 299.22 435.36 297.13 424.27 300.32C409.74 304.5 402.03 314.99 399.95 317.91C398.37 320.13 397.73 321.46 394.34 328.28C390.88 335.24 386.53 343.92 381.44 353.96C383.71 336.81 383.1 323.28 382.14 314.23C381.43 307.5 380.53 303.32 378.54 298.88C373.87 288.42 365.76 282.31 360.86 279.25C355.99 276.34 350.66 273.42 344.88 270.6C334.91 265.73 325.44 262.07 316.87 259.3C310.56 256.72 248.01 230.95 218.17 208.74C207.93 201.12 202.23 194.43 199.13 190.4C190.24 178.84 185.94 167.32 183.74 159.63H183.77Z" fill="#840029"/>
<path d="M495.17 255.33C515.28 252.1 530.63 245.62 540.53 240.53C551.9 234.69 568.85 225.75 582.74 207.05C586.94 201.39 589.83 196.23 591.72 192.49C580.86 202.61 567.66 213.57 551.94 224.27C531.39 238.25 511.84 248.2 495.17 255.32V255.33Z" fill="#840029"/>
<path d="M596.33 106.64C596.81 116.59 596.78 143.48 579.82 171.26C562.76 199.2 538.65 211.51 529.58 215.6C540.74 206.35 555.02 192.45 568.02 172.91C585.06 147.3 592.68 122.83 596.32 106.64H596.33Z" fill="#840029"/>
<path d="M472.21 288.83C492.55 287.84 508.53 283.09 518.93 279.12C530.88 274.57 548.71 267.55 564.57 250.5C569.37 245.34 572.81 240.53 575.1 237.02C563.19 245.88 548.86 255.32 532.05 264.22C510.09 275.85 489.55 283.59 472.21 288.83Z" fill="#840029"/>
<path d="M159.67 103.69C155.14 111.66 138.42 143.3 148.33 180.65C159.02 220.94 196.37 251.59 242.7 257.61C233.21 253.74 188.59 234.38 167.36 184.3C152.23 148.6 157.06 116.36 159.67 103.69Z" fill="#840029"/>
<path d="M131.38 216C135.31 228.54 142.54 244.46 156.55 258.07C174.4 275.41 195.33 281.29 228.77 290.67C253.35 297.57 258.39 296.31 282.21 303.9C301.92 310.18 317.5 317.11 327.71 322.07C319.58 315.97 307.05 307.55 290.42 300.04C284.87 297.53 280.01 295.65 264.22 290.15C227.6 277.41 227.09 278.29 213.43 273.04C195.07 265.99 178.68 259.7 161.23 246.41C146.87 235.48 137.23 223.94 131.38 216Z" fill="#840029"/>
<path d="M165.53 292.42C168.09 296.36 171.4 300.68 175.67 304.94C188.11 317.37 202.1 322.77 210.65 325.21C224.76 328.28 236.42 329.87 244.46 330.76C264.96 333.03 276.05 332.26 296.55 336.1C305.06 337.69 311.94 339.47 316.39 340.71C312 337.22 305.14 332.46 295.92 328.78C283.3 323.75 273.76 323.77 262.13 323.02C244.85 321.9 218.87 320.22 195.75 310.7C188.38 307.67 177.54 302.29 165.54 292.41L165.53 292.42Z" fill="#840029"/>
<path d="M243.62 353.96C244.89 359.79 248.05 370.4 256.67 380.4C261.5 386 270.47 396.42 284.09 397.55C301.86 399.03 321.49 384.05 320.2 372.59C319.02 362.1 300.53 356.44 292.43 353.97C271.81 347.66 253.46 351.21 243.61 353.97L243.62 353.96Z" fill="#840029"/>
<path d="M367.05 362.41C361.92 370.52 343.62 397.15 309.64 405.6C297.66 408.58 286.93 408.5 278.78 407.62C288.83 420.93 302.04 436.23 319.04 451.6C338.81 469.47 358.1 482.37 374.17 491.55C400.62 474.77 439.81 445.41 475.44 398.33C508.25 354.98 525.57 313.08 534.9 284.36C530.01 287.11 522.13 291.24 511.98 295.2C493.69 302.33 485.08 302.26 458.71 311C443.4 316.07 438.27 318.76 433.93 321.53C423.99 327.89 417.31 335.33 413.18 340.72C411 345.34 408.24 352.79 408.22 362.1C408.21 367.7 409.19 372.2 411.32 379.44C413.75 387.72 417.53 399.1 423.4 412.58C422.83 415.42 421.56 419.83 418.44 424.35C413.26 431.87 406.21 435 403.26 436.12C403.12 432.95 402.65 429.02 401.4 424.66C399.31 417.37 395.92 411.97 393.35 408.56C393.77 410.8 395.58 421.6 388.7 432.1C381.35 443.32 369.66 445.67 367.64 446.04C364.28 446.32 360.56 446.47 356.52 446.38C352.08 446.28 348.02 445.92 344.41 445.42C347.85 443.95 354.93 440.38 360.82 432.72C366.05 425.92 367.87 419.11 368.56 415.49C351.81 433.2 331.89 441.79 317.46 435.81C314.93 434.76 312.15 433.1 309.38 430.37C316.89 428.13 330.33 422.98 342.78 410.95C361.94 392.43 365.99 369.95 367.02 362.41H367.05Z" fill="#840029"/>
<path d="M628.56 495.98C605.69 502.07 581.25 504.04 559.11 511.61C596.71 479.36 594.57 429.41 619.67 391.4C627.65 380.62 634.23 369.35 643.61 359.15C628.31 389.76 634.97 429.5 617.44 459.29C610.69 471.06 600.98 482.58 590.37 491.87C593.83 491.71 596.95 488.74 600 486.69C628.47 458.22 665.74 450.32 696.52 427.2C708.86 417.33 720.22 404.49 725.57 390.5C719.65 437.65 672.75 481.91 628.56 495.98Z" fill="#840029"/>
<path d="M731.16 304.92C717.17 324.75 700.39 343.18 687.47 363.34C688.95 347.38 690.76 327.79 684.59 312.65C673.81 280.07 664.35 247.07 661.3 211.28L661.71 197.62C669.77 234.15 705.65 259.25 703.43 300.14C704.25 310.1 701.21 318.49 699.32 327.21L699.98 327.87L701.63 326.06C706.98 305.98 709.61 284.92 717.92 266.16C729.69 239.17 744.33 211.94 738.33 179.44C756.1 217.87 750.67 269.13 731.17 304.92" fill="#840029"/>
<path d="M709.2 98.15C732.73 129.99 737.83 180.76 720.72 217.29C714.3 232.76 709.86 249.3 707.31 266.41C706.16 263.45 705.83 259.5 704.76 256.21C695.46 220.5 661.56 194.99 647.66 161.26C643.3 150.23 639.51 138.8 637.37 126.87C652.18 154.35 688.88 168.59 698.83 198.87C702.94 206.52 702.7 216.15 705.25 224.38C705.83 224.38 706.32 223.97 706.32 223.47C701.96 192.29 703.28 159.62 707.47 128.76C707.22 112.06 705.58 95.85 696.28 82.93C702.37 86.3 705 92.97 709.2 98.15Z" fill="#840029"/>
<path d="M692.57 92.06C698.74 119.95 689.69 147.19 695.45 175.33L695.2 175.58C679.98 145.71 647.81 131.64 625.59 107.7C612.67 93.55 607.16 76.27 603.95 57.92C616.7 88.53 650.93 95.36 670.6 121.11C677.18 127.03 679.32 135.26 683.6 142.09L684.26 141.43C672.91 117.24 669.12 90.09 661.22 64.25C657.27 53.06 649.45 42.12 638.92 35.04C664.84 40.39 687.22 67.38 692.57 92.06Z" fill="#840029"/>
<path d="M623.46 28.05C642.96 45.49 651.76 68.04 657.44 91.41L660.65 98.82C632.35 78.5 606.76 51.18 588.74 22.3L566.69 0C586.03 8.23 606.93 13.16 623.46 28.06" fill="#840029"/>
<path d="M177.33 3.69C157.83 20.8 144.25 42.44 129.77 62.69C116.77 78.73 100.15 89.43 85.42 103.17C93.4 86.71 93.65 66.97 104.92 51.91C120.96 23.93 150.75 14.06 177.33 3.69Z" fill="#840029"/>
<path d="M70.53 63.35C79.99 51.58 92.09 43.36 105.58 39.9C79.25 58 80.98 90.34 72.67 117.33C70.04 127.29 65.43 136.42 63.13 146.7L63.79 147.19C68.15 135.59 75.89 124.73 85.43 115.35C104.11 98.07 131.75 87.29 140.89 61.78C140.48 97.24 110.94 125.14 82.63 145.05C70.95 155.34 59.67 166.94 53.26 180.1C52.6 171.13 54.58 162.16 53.92 152.62C50.88 121.68 48.65 86.3 70.54 63.34" fill="#840029"/>
<path d="M17.29 169.24C16.47 137.89 29.47 112.22 47.82 88.85C48.4 88.6 48.73 88.03 49.47 88.19C29.31 118.88 46.01 157.55 45.03 192.44L42.4 228.15C42.81 228.4 42.81 229.47 43.72 229.06C44.87 225.11 45.2 220.83 45.94 216.72C50.71 187.92 75.73 167.43 97.61 147.52C102.3 142.34 106.41 136.99 108.8 130.9C106.99 145.22 102.55 159.7 96.54 173.03C79.59 206.27 48.16 233.51 42.4 271.52C39.6 235.07 14.84 207.83 17.3 169.24" fill="#840029"/>
<path d="M1.99 213.84C4.21 204.05 6.02 193.85 10.22 184.88C2.07 226.35 30.05 256.3 39.18 292.26C43.05 305.67 43.95 320.15 49.47 332.74C49.96 332.99 50.38 332.49 50.7 332.08C37.12 293.82 56.79 258.36 76.54 228.49C81.31 220.43 84.11 211.38 86.5 202.08C88.64 219.36 84.28 239.27 81.73 257.21C76.96 280.08 69.8 301.72 63.55 323.86C59.44 337.68 60.51 353.32 62.64 367.88L60.67 366.23C46.19 339.49 17.47 318.67 9 289.46C1.92 266.17 -2.77 239.19 2.01 213.84" fill="#840029"/>
<path d="M0.67 294.88C3.88 338.9 51.11 362.1 73.08 398.47C78.26 405.88 82.79 414.19 89.7 420.36C88.63 415.67 84.27 411.72 82.62 406.95C74.97 391.73 72.17 373.46 73.98 355.03C76.12 332.57 85.5 311.75 81.88 288.14C101.13 329.69 95.29 381.53 106.07 426.54C108.87 436.41 114.54 445.14 118.33 454.6C78.75 427.61 24.86 402.02 7.33 352.57C-0.0799998 335.54 -0.9 314.39 0.67 294.89" fill="#840029"/>
<path d="M24.37 395.84C46.42 445.78 101.63 449.9 138.66 480.26C145.49 486.27 152.57 491.45 160.3 494.99L160.71 494.58C152.24 486.85 142.36 478.12 136.44 468.17C114.8 438.06 122.37 395.76 106.16 363.34C120.89 381.03 134.3 399.38 143.27 419.37C156.52 452.04 161.62 488.98 192.23 513.75C159.07 502.81 120.15 505.93 90.86 485.45C58.85 465.78 30.3 432.46 24.38 395.85" fill="#840029"/>
<path d="M80.98 488.9C116.36 529.14 174.12 515.72 221.19 526.26C227.85 527.17 233.94 529.8 241.02 528.73C235.42 525.19 227.61 525.6 221.52 522.31C184.58 509.31 179.15 469.32 159.15 442.33C184.74 459.36 206.3 482.32 229.91 504.53C246.86 519.42 267.35 526.25 288.91 530.7C283.73 532.59 276.98 532.1 271.38 533.5C232.71 543.04 189.67 558.6 148.7 544.69C121.96 536.3 94.39 515.23 80.98 488.9Z" fill="#840029"/>
<path d="M561.01 582.7C521.1 597.59 479.55 582.04 448.45 558.43C435.86 550.45 424.75 538.93 408.46 539.92C402.54 539.84 396.86 540.08 391.84 541.57C422.12 555.64 450.18 575.06 475.85 599.91C471.49 604.85 465.89 609.45 460.63 613.73C435.86 587.07 408.46 561.4 377.77 546.42C371.76 547.24 366.09 550.78 360.66 553.74C335.65 569.54 310.96 589.86 292.45 614.71L276.49 601.55C302 575.8 330.14 555.72 360.99 541.4C339.43 534.57 323.22 545.43 307.34 556.95C300.92 561.64 294.59 566.33 287.92 570.11C261.1 588.87 222.59 597.59 190.25 584.67C172.81 578.09 155.94 568.3 143.35 552.5C168.86 570.03 206.79 571.92 235.75 560.48C274.59 543.61 314.99 522.22 361.89 532.42C369.21 532.58 376.29 539.83 383.2 533.65C418.09 524.6 457.5 530.85 487.45 546.81L518.39 559.15C547.19 569.85 584.3 566.88 608.9 549.36C596.15 564.99 578.87 576.27 561.01 582.68" fill="#840029"/>
<path d="M603.71 541.48C558.95 558.35 513.94 537.61 471.07 530.7L462.84 529.63V529.38C483.33 524.77 503.24 518.6 519.53 503.87C543.56 480.75 564.95 456.97 591.61 438.79C571.78 464.13 569.72 500.25 537.06 516.63C529 521.9 518.79 522.88 510.4 526.83C522.33 527.08 533.19 522.88 544.96 521.65C588.82 514.74 638.93 521.81 669.7 484.46C658.26 510.54 629.71 532.35 603.71 541.48Z" fill="#840029"/>
<path d="M685 415.59C667.31 427.11 649.45 437.89 632.42 451.05V449.4C658.42 406.12 645.75 346.8 661.79 299.15L667.71 283.19C664.42 312.81 677.25 337.91 676.35 367.69C675.44 385.63 669.6 401.59 660.14 415.91H661.79C674.54 399.21 684.5 381.35 699.39 365.47C722.51 343.17 746.04 320.3 749.09 289.36C756.82 341.11 727.78 386.37 684.99 415.58" fill="#840029"/>
</svg>
